<svg version="1.1" xmlns="http://www.w3.org/2000/svg" xmlns:xlink="http://www.w3.org/1999/xlink" x="0px" y="0px" viewBox="0 0 1000 1000" enable-background="new 0 0 1000 1000" xml:space="preserve">
<g><path d="M666.3,376.5l263-262.1l-0.9,148.5c-0.4,12.3,9.6,23.2,21.9,22.8h15.8c12.3-0.4,22.6-7.6,22.8-20.1l0.7-221.2c0-0.2,0.4-11.8,0.4-11.8c0.2-6.2-1.3-11.8-5.3-15.8c-4-4-9.4-6.5-15.8-6.3l-11.2,0.2c-0.2,0-0.4,0-0.5,0.2L737.8,10c-12.3,0.4-22.6,10.5-22.8,23v15.8c1.8,14.7,13.4,23.2,25.7,22.8L885.3,72L623,333.2c-12,12-12,31.3,0,43.3C635,388.6,654.3,388.6,666.3,376.5L666.3,376.5z M334.8,623.5L71.6,884.7l0.9-147.8c0.4-12.3-9.6-23.2-21.9-22.8H33.9c-12.3,0.4-22.6,7.6-22.8,20.1l-0.7,221.4c0,0.2-0.4,11.8-0.4,11.8c-0.2,6.2,1.3,11.8,5.2,15.8c4,4,9.4,6.5,15.8,6.3l11.2-0.2c0.2,0,0.4,0,0.5-0.2l220.3,0.9c12.3-0.4,22.6-10.5,22.8-23v-15.8c-1.8-14.7-13.4-23.2-25.7-22.8L115.6,928l262.1-261.2c12-12,12-31.3,0-43.3C366,611.4,346.8,611.4,334.8,623.5L334.8,623.5z M989.6,955.6l-0.5-221.4c-0.4-12.3-10.5-19.7-22.8-20.1h-15.8c-12.3-0.4-22.1,10.5-21.9,22.8l0.9,148.5L666.3,623.5c-12-12-31.3-12-43.3,0c-12,12-12,31.3,0,43.3L885.1,928l-144.5,0.4c-12.3-0.4-23.7,8.3-25.7,22.8V967c0.4,12.3,10.5,22.6,22.8,23l219.4-0.9c0.2,0,0.4,0.2,0.5,0.2l11.2,0.2c6.2,0.2,11.8-2.2,15.8-6.3c4-4,5.4-9.6,5.3-15.8C989.8,967.3,989.6,955.7,989.6,955.6L989.6,955.6L989.6,955.6z M115.8,72l144.5-0.4c12.3,0.4,23.7-8.3,25.7-22.8V33c-0.4-12.3-10.5-22.6-22.8-23L42.8,10.9c-0.2,0-0.4-0.2-0.5-0.2L31,10.6c-6.2-0.2-11.8,2.2-15.8,6.3c-4,4-5.4,9.6-5.2,15.8c0,0,0.4,11.6,0.4,11.8l0.5,221.4c0.2,12.3,10.5,19.7,22.8,20.1h16.7c12.3,0.4,22.1-10.5,21.9-22.8l-0.7-147.8l263,261.4c11.9,12,31.3,12,43.3,0c12-12,12-31.3,0-43.3L115.8,72L115.8,72z"/></g>
</svg>