<svg version="1.1" xmlns="http://www.w3.org/2000/svg" xmlns:xlink="http://www.w3.org/1999/xlink" x="0px" y="0px" viewBox="0 0 1000 1000" enable-background="new 0 0 1000 1000" xml:space="preserve">
<metadata> Svg Vector Icons : http://www.onlinewebfonts.com/icon </metadata>
<g><path d="M717.6,80.8C665,33.6,602.7,10,530.7,10c-65.8,0-129,18.7-189.6,56.1c-60.6,36.5-106.3,84.2-137.5,143c29.3,33.8,48.5,51.6,57.4,53.3c50.7-57.8,91.3-96.5,121.5-116.2c39.1-25.8,85.8-38.7,140.1-38.7c43.6,0,83.3,14.6,118.9,44c34.7,30.3,52.1,67.2,52.1,110.8c0,49.8-30.3,112.6-90.8,188.3c-48,53.3-96,106.8-144.1,160.2c2.6,19.6,21.8,38.7,57.4,57.4c70.3-49,132.3-108.6,185.6-178.9c63.2-83.7,94.8-160.7,94.8-230.9C796.4,187.2,770.1,128.1,717.6,80.8L717.6,80.8z M423.8,791.1c-32,56.9-51.6,102.3-58.7,136.2c39.1,28.4,87.2,49.4,144.1,62.7c10.7-10.7,23.2-32.9,37.4-66.8c14.3-34.8,21.4-59.5,21.4-74.7C511.1,812,463,792.8,423.8,791.1L423.8,791.1z"/></g>
</svg>