<svg version="1.1" xmlns="http://www.w3.org/2000/svg" xmlns:xlink="http://www.w3.org/1999/xlink" x="0px" y="0px" viewBox="0 0 1000 1000" enable-background="new 0 0 1000 1000" xml:space="preserve">
<g><g transform="translate(0.000000,512.000000) scale(0.100000,-0.100000)"><path d="M2452.5,2711.6L100,359.1l2340.9-2342.8C3729.1-3270,4799.1-4330.4,4820.4-4336.2c19.3-7.7,42.5,0,52.2,13.5c9.7,15.5,17.4,602.6,17.4,1307.6v1278.6h75.3c127.5,0,519.6-56,751.3-108.2c967.7-216.3,1823.3-687.6,2526.3-1388.7c394-392.1,660.6-753.3,932.9-1255.4c142.9-266.5,210.5-351.5,262.7-330.3c104.3,38.6,343.8,832.4,426.8,1411.9c42.5,283.9,46.4,987,9.7,1274.7c-123.6,983.1-508,1892.8-1116.4,2646c-189.3,233.7-612.3,650.9-836.3,824.7c-502.2,388.2-1091.3,693.4-1693.9,874.9c-365,112-689.5,168-1207.1,214.4l-131.3,11.6v1280.5c0,705-5.8,1294.1-11.6,1311.4c-5.8,17.4-25.1,30.9-42.5,30.9C4818.5,5062.1,3744.6,4003.7,2452.5,2711.6z"/></g></g>
</svg>