<svg version="1.1" xmlns="http://www.w3.org/2000/svg" xmlns:xlink="http://www.w3.org/1999/xlink" x="0px" y="0px" viewBox="0 0 1000 1000" enable-background="new 0 0 1000 1000" xml:space="preserve">
<g><path d="M437.6,510.5c-3-3-6.5-4.5-10.5-4.5c-3.9,0-7.4,1.5-10.4,4.5L265.3,661.7l-65.7-65.6c-5.7-5.7-12.6-8.7-20.4-8.7c-7.9,0-14.8,2.9-20.5,8.7c-5.8,5.7-8.7,12.6-8.7,20.5v204.2c0,7.9,2.9,14.7,8.7,20.5c5.7,5.7,12.6,8.6,20.5,8.6h204.1c7.9,0,14.8-2.9,20.5-8.6c5.8-5.8,8.7-12.6,8.7-20.5s-2.9-14.8-8.7-20.5l-65.6-65.7l151.3-151.3c3.1-3.1,4.6-6.6,4.6-10.5c0-3.9-1.5-7.4-4.6-10.5L437.6,510.5z"/><path d="M841.4,158.7c-5.7-5.7-12.6-8.7-20.5-8.7H616.7c-7.9,0-14.7,2.9-20.5,8.7c-5.7,5.7-8.6,12.6-8.6,20.5s2.9,14.8,8.6,20.5l65.7,65.6L510.5,416.6c-3,3-4.5,6.5-4.5,10.5c0,3.9,1.5,7.4,4.5,10.4l52,52c3,3,6.5,4.6,10.4,4.6c4,0,7.5-1.5,10.5-4.6l151.3-151.3l65.6,65.7c5.7,5.7,12.6,8.6,20.5,8.6s14.7-2.9,20.5-8.6c5.7-5.8,8.7-12.7,8.7-20.5V179.2C850,171.3,847.2,164.4,841.4,158.7"/><path d="M850,80.5c37.4,0,50.3,14.4,58.1,28.4c8.8,16,11.2,35.3,11.4,41.7V850c0,37.4-14.4,50.3-28.4,58.1c-16,8.8-35.3,11.2-41.7,11.4H150c-37.4,0-50.3-14.4-58.1-28.4c-8.8-16-11.2-35.3-11.4-41.7V150c0-37.4,14.4-50.3,28.4-58.1c16-8.8,35.3-11.2,41.7-11.4H850 M850,10H150c0,0-140,0-140,140v700c0,0,0,140,140,140h700c0,0,140,0,140-140V150C990,150,990,10,850,10L850,10z"/></g>
</svg>