<svg version="1.1" id="Capa_1" xmlns="http://www.w3.org/2000/svg" xmlns:xlink="http://www.w3.org/1999/xlink" x="0px" y="0px"
	 viewBox="0 0 82.743 82.743" style="enable-background:new 0 0 82.743 82.743;" xml:space="preserve">
<g>
	<path d="M60.647,55.274c-0.447-0.26-0.895-0.518-1.342-0.777c-0.357-0.152-0.709-0.315-1.061-0.477
		c-0.119,0.182-0.24,0.364-0.363,0.548c-0.266,0.389-0.541,0.786-0.777,1.213c-0.274,0.463-0.492,0.946-0.709,1.42
		c-0.342,0.758-0.674,1.478-1.156,2.056c-0.645,0.767-1.467,1.438-2.264,2.093c-0.227,0.18-0.455,0.369-0.672,0.549
		c-0.834,0.711-1.951,1.601-3.182,2.311l-0.588,0.351c-0.938,0.55-1.914,1.118-2.916,1.487c-1.203,0.436-2.529,0.786-3.836,1.022
		c-0.438,0.076-0.93,0.104-1.525,0.114c-2.471-0.036-4.98-0.449-7.35-1.091c-5.709-0.21-11.133-3.61-15.15-8.054
		c-2.08-2.302-3.787-4.882-4.957-7.445c-1.139-2.496-1.887-5.746-1.756-8.783c-0.027-0.247-0.07-0.493-0.082-0.742
		c-0.107-2.275,0.674-4.225,0.83-6.445c0.043-0.604,0.385-1.003,0.816-1.206c0.439-0.264,1.01-0.325,1.439-0.021
		c0.488,0.345,0.986,0.676,1.477,1.016c0.273,0.19,0.531,0.397,0.799,0.595c0.24,0.007,0.482,0.015,0.742,0.032
		c-0.234-0.956-0.418-1.921-0.551-2.893c-0.096-0.696-0.18-1.395-0.26-2.092c-0.242-2.055-0.488-4.098-1.139-6.053
		c-0.232-0.702-2.289-0.185-4.768,0.722c-2.127,0.776-4.566,1.839-6.434,2.662c-0.057,0.174-0.111,0.354-0.168,0.531
		c0.713,0.459,1.4,0.977,2.152,1.396c0.813,0.452,0.842,1.305,0.467,1.921c-2.131,6.27-4.061,11.703-3.426,18.562
		c0.416,4.504,1.197,8.747,2.703,12.791c0.895,2.403,2.045,4.737,3.527,7.012c0.223,0.34,0.27,0.673,0.205,0.972
		c0.926,1.073,1.902,2.129,3.008,3.063c1.572,1.315,3.373,2.548,5.664,3.873c1.516,0.881,3.164,1.431,4.754,1.97
		c0.531,0.189,1.07,0.37,1.602,0.559c0.379,0.143,0.758,0.285,1.137,0.427c1.705,0.634,3.475,1.297,5.379,1.628
		c2.17,0.38,4.461,0.578,6.818,0.578c0.625,0,1.25,0.02,1.875,0.038c0.645,0.02,1.279,0.038,1.914,0.038
		c1.221,0,2.207-0.076,3.105-0.236c2.311-0.398,4.566-1.004,6.688-1.771c1.836-0.673,3.521-1.667,5.15-2.623l0.967-0.568
		c2.17-1.25,4.109-2.813,5.561-4.025c0.358-0.303,0.729-0.605,1.088-0.899c1.393-1.136,2.822-2.311,4.016-3.722
		c0.976-1.165,1.6-2.529,2.197-3.856c0.359-0.775,0.691-1.505,1.088-2.196c0.299-0.512,0.631-1.015,0.977-1.53
		c-0.596-0.245-1.188-0.498-1.773-0.763C67.164,59.006,63.901,57.158,60.647,55.274z M15.159,26.952
		c0.182,0.17,0.351,0.341,0.521,0.502c-0.891-0.615-1.705-1.326-2.49-2.197C13.881,25.777,14.545,26.327,15.159,26.952z"/>
	<path d="M77.59,48.482c-0.869-0.326-1.025-1.165-0.746-1.83c1.174-6.518,2.275-12.177,0.629-18.866
		c-1.08-4.391-2.486-8.472-4.574-12.247c-1.244-2.243-2.729-4.38-4.531-6.409c-0.271-0.302-0.365-0.625-0.348-0.93
		c-1.076-0.925-2.197-1.822-3.43-2.582C62.84,4.551,60.875,3.6,58.412,2.63c-1.629-0.646-3.34-0.944-4.992-1.241
		c-0.553-0.108-1.113-0.207-1.668-0.315c-0.395-0.084-0.789-0.169-1.188-0.252c-1.779-0.375-3.629-0.767-5.561-0.812
		c-2.201-0.053-4.498,0.091-6.828,0.441c-0.619,0.094-1.24,0.168-1.861,0.241c-0.639,0.078-1.27,0.154-1.896,0.248
		c-1.209,0.181-2.17,0.402-3.037,0.695c-2.225,0.736-4.365,1.671-6.35,2.745c-1.717,0.938-3.234,2.172-4.705,3.36l-0.869,0.705
		c-1.961,1.559-3.647,3.392-4.9,4.807c-0.309,0.353-0.631,0.708-0.941,1.053c-0.139,0.15-0.275,0.305-0.412,0.455
		c0.588,0.289,1.174,0.581,1.756,0.878c2.211,1.126,4.393,2.307,6.559,3.519c1.162,0.61,2.305,1.255,3.453,1.893
		c0.369,0.204,0.734,0.413,1.1,0.618c3.688-4.25,10.865-6.999,16.807-7.699c1.262-0.148,2.473-0.215,3.576-0.172
		c4.465,0.169,8.738,1.047,12.74,3.071c1.467,0.743,2.535,1.712,3.412,2.818c0.438-0.063,0.922,0.063,1.318,0.451
		c5.109,4.993,6.408,11.96,7.447,18.76c0.074,0.487-0.078,0.869-0.342,1.14c-0.018,1.348-0.168,2.674-0.055,4.067
		c0.047,0.604-0.233,1.05-0.629,1.315c-0.395,0.325-0.951,0.471-1.422,0.233c-0.533-0.269-1.074-0.522-1.609-0.785
		c-0.299-0.146-0.584-0.313-0.877-0.47c-0.24,0.029-0.482,0.059-0.74,0.079c0.375,0.911,0.699,1.837,0.975,2.778
		c0.199,0.675,0.385,1.352,0.568,2.029c0.545,1.996,1.092,3.981,2.025,5.816c0.334,0.66,2.291-0.157,4.607-1.421
		c1.988-1.084,4.242-2.499,5.967-3.59c0.029-0.181,0.057-0.367,0.086-0.55C79.155,49.196,78.395,48.785,77.59,48.482z
		 M68.784,52.193c-0.203-0.142-0.399-0.286-0.59-0.42c0.971,0.478,1.883,1.058,2.789,1.804
		C70.223,53.165,69.485,52.721,68.784,52.193z"/>
</g>
</svg>
