<svg version="1.0" xmlns="http://www.w3.org/2000/svg"
 width="1088.000000pt" height="1280.000000pt" viewBox="0 0 1088.000000 1280.000000"
 preserveAspectRatio="none">
<g transform="translate(0.000000,1280.000000) scale(0.100000,-0.100000)"
fill="#000000" stroke="none">
<path d="M3643 12470 c-73 -37 -135 -101 -171 -178 -24 -52 -27 -68 -27 -172
0 -103 4 -124 31 -202 81 -226 233 -411 514 -624 l75 -56 -64 6 c-35 3 -76 6
-90 6 -30 0 -270 154 -521 333 -456 327 -830 490 -1212 528 -431 42 -809 -156
-937 -490 -70 -182 -65 -357 14 -518 83 -169 284 -293 475 -293 55 0 146 27
190 56 161 107 84 348 -106 332 -65 -6 -118 -43 -145 -102 -26 -56 -24 -104 6
-161 l26 -48 -43 7 c-53 9 -142 52 -197 96 -180 145 -206 445 -57 668 210 316
643 409 1136 246 215 -71 452 -205 722 -406 84 -63 214 -156 288 -207 74 -51
137 -97 139 -103 2 -6 -3 -8 -10 -5 -8 3 -69 24 -136 46 -410 134 -839 163
-1131 76 -67 -20 -64 -26 8 -13 89 16 381 12 515 -6 202 -28 459 -95 638 -165
l28 -11 -19 -37 c-11 -21 -22 -50 -26 -65 -3 -15 -41 -62 -84 -105 -90 -89
-116 -136 -116 -209 -1 -156 178 -230 420 -174 95 22 232 85 506 234 l88 48
66 -22 c52 -18 64 -25 59 -39 -4 -9 -9 -33 -12 -53 -5 -32 -1 -41 25 -68 23
-22 40 -30 67 -30 48 0 101 23 135 60 l29 31 109 -23 109 -22 -53 -51 c-51
-48 -67 -75 -44 -75 6 0 10 4 10 10 0 15 61 80 89 95 22 11 29 11 46 -1 14
-11 34 -13 71 -8 49 6 51 5 78 -31 51 -66 148 -85 228 -44 40 20 42 20 80 3
l38 -17 -22 -25 c-43 -46 -57 -47 -94 -11 -19 18 -34 28 -34 22 0 -7 14 -21
30 -33 17 -12 27 -26 24 -31 -7 -13 -48 -29 -94 -39 -34 -8 -35 -8 -5 -9 17 0
50 9 74 20 l45 20 47 -21 c26 -11 60 -19 76 -19 26 2 27 2 3 6 -37 6 -110 34
-110 42 0 4 15 21 33 39 28 27 41 32 81 32 61 0 108 22 138 66 29 42 35 45 85
31 34 -9 45 -8 66 6 24 16 27 15 65 -13 22 -16 48 -43 58 -59 17 -29 34 -41
34 -23 0 15 -63 83 -91 97 -16 9 -29 19 -29 23 0 4 48 20 107 34 l107 26 41
-43 c112 -119 278 -60 217 78 l-20 44 58 21 58 20 202 -109 c230 -125 332
-170 444 -194 283 -63 474 84 371 285 -10 19 -53 70 -96 112 -54 53 -79 84
-79 101 0 13 -13 44 -30 70 -16 25 -26 48 -22 51 15 8 231 75 307 95 274 69
614 95 814 60 72 -12 76 -4 9 16 -116 34 -231 48 -403 48 -241 -1 -465 -39
-728 -123 -54 -17 -105 -29 -113 -26 -10 4 25 33 98 82 62 43 187 132 278 199
221 164 319 226 485 311 353 178 690 231 973 154 197 -54 371 -189 452 -351
42 -82 60 -159 60 -254 0 -142 -43 -247 -137 -336 -58 -55 -160 -108 -224
-116 l-40 -6 25 38 c62 91 33 205 -65 255 -119 61 -259 -25 -259 -159 0 -130
146 -224 322 -207 230 21 425 191 479 416 7 30 13 96 12 145 -2 323 -227 601
-566 699 -313 91 -701 30 -1112 -174 -190 -94 -296 -160 -561 -348 -110 -77
-257 -177 -327 -222 -114 -73 -136 -83 -195 -91 -80 -11 -92 -15 -92 -30 0 -8
13 -9 43 -5 58 10 47 2 -128 -95 -189 -104 -289 -151 -309 -143 -11 4 39 42
152 118 435 289 651 493 765 722 140 280 103 534 -94 651 -30 17 -64 34 -77
38 -22 6 -23 5 -17 -28 10 -52 -24 -108 -97 -165 -139 -106 -155 -128 -133
-173 8 -14 40 -43 72 -64 153 -101 203 -168 203 -271 0 -56 -13 -118 -30 -137
-3 -4 -4 19 -2 52 6 79 -17 127 -72 152 -108 49 -219 -8 -282 -145 -22 -48
-28 -81 -34 -177 -5 -65 -14 -135 -20 -156 -30 -93 -123 -195 -299 -331 l-89
-69 -64 13 c-34 8 -96 14 -135 14 l-73 0 31 48 c76 120 99 322 50 450 -46 120
-158 212 -262 212 -104 0 -187 -45 -231 -126 -51 -94 -46 -192 13 -259 48 -55
132 -60 164 -11 30 45 -8 107 -44 71 -19 -18 -3 -51 23 -49 24 2 19 -13 -9
-32 -50 -32 -122 6 -151 81 -30 81 0 195 65 242 96 71 255 50 326 -42 77 -102
91 -268 34 -419 -32 -86 -95 -176 -132 -189 -18 -7 -65 -29 -106 -49 -41 -21
-76 -38 -77 -38 -2 0 -1 7 3 15 5 16 -8 101 -28 177 -18 70 -111 108 -180 73
-19 -10 -44 -26 -56 -37 l-22 -20 -40 32 c-74 60 -172 46 -213 -30 -20 -36
-20 -110 -2 -200 l7 -34 -34 23 c-53 35 -148 76 -221 96 -73 19 -86 32 -142
143 -99 196 -52 449 97 521 52 25 141 28 195 5 118 -49 166 -199 96 -306 -32
-50 -90 -69 -130 -43 l-26 17 23 12 c28 13 31 44 7 59 -33 21 -60 -29 -42 -78
11 -29 57 -45 97 -34 80 22 117 78 117 179 0 100 -46 176 -135 223 -54 29
-173 30 -227 3 -116 -57 -188 -192 -188 -351 0 -102 30 -203 97 -326 2 -3 -24
-9 -57 -12 -34 -4 -89 -14 -122 -22 -71 -19 -58 -24 -206 94 -125 101 -212
194 -247 265 -23 47 -28 74 -35 185 -6 105 -12 140 -32 183 -63 137 -182 200
-285 151 -56 -26 -75 -65 -71 -150 3 -65 2 -70 -10 -48 -7 14 -18 49 -23 79
-22 107 25 196 149 283 168 117 171 141 27 247 -99 74 -130 116 -130 178 0 26
-3 48 -6 48 -3 0 -33 -14 -66 -30z m-1451 -411 c199 -21 421 -91 641 -200 168
-83 302 -165 500 -307 95 -68 236 -167 315 -220 90 -60 139 -99 133 -105 -12
-12 -237 135 -453 295 -217 160 -345 240 -513 323 -301 148 -575 210 -823 185
-311 -32 -548 -180 -663 -415 -51 -105 -73 -207 -65 -306 12 -142 59 -242 158
-334 67 -62 52 -61 -21 1 -104 90 -162 227 -163 384 -2 401 332 696 804 709
26 0 94 -4 150 -10z m6745 -15 c239 -49 438 -193 532 -385 53 -109 71 -183 71
-294 0 -179 -70 -326 -196 -414 -48 -33 -48 -33 13 23 146 134 196 357 127
563 -58 173 -206 331 -390 414 -308 140 -716 102 -1129 -103 -160 -80 -276
-153 -480 -301 -269 -197 -441 -309 -466 -305 -16 2 10 24 102 85 68 45 201
137 296 205 324 232 560 362 801 441 289 95 500 116 719 71z m-4027 -353 c-75
-23 -147 -89 -181 -165 -58 -133 -38 -320 51 -460 17 -27 29 -50 27 -53 -6 -5
-58 81 -79 132 -72 171 -51 361 52 479 33 37 103 76 135 75 16 -1 15 -2 -5 -8z
m1043 -27 c39 -26 117 -135 117 -163 0 -9 -14 9 -31 39 -47 85 -91 125 -169
152 -20 6 -18 7 10 3 19 -3 52 -17 73 -31z m124 -206 c-3 -8 -6 -5 -6 6 -1 11
2 17 5 13 3 -3 4 -12 1 -19z m10 -151 c-2 -23 -3 -1 -3 48 0 50 1 68 3 42 2
-26 2 -67 0 -90z m-12 -87 c-9 -41 -17 -33 -9 9 4 17 9 30 11 27 3 -2 2 -19
-2 -36z m-2196 -36 c70 -42 87 -60 48 -50 -41 10 -140 73 -125 79 7 3 14 6 15
6 1 1 29 -15 62 -35z m186 23 c50 -10 89 -32 240 -132 195 -130 212 -160 47
-80 -103 49 -402 214 -402 221 0 7 54 3 115 -9z m2891 -18 c-27 -17 -72 -43
-100 -59 -197 -108 -244 -133 -312 -165 -94 -43 -122 -46 -39 -3 88 44 321
176 390 220 33 21 71 38 85 38 22 0 18 -5 -24 -31z m148 3 c3 -5 -11 -14 -32
-20 l-37 -11 25 19 c28 22 36 24 44 12z m-3369 -22 c3 -6 -1 -7 -9 -4 -18 7
-21 14 -7 14 6 0 13 -4 16 -10z m2301 -55 c-29 -63 -66 -119 -73 -111 -3 3 5
20 19 38 14 18 36 56 49 85 13 29 25 50 27 48 2 -2 -8 -29 -22 -60z m-766 12
c0 -19 -47 -60 -59 -52 -16 9 -14 26 6 47 19 21 53 24 53 5z m290 3 c0 -11
-53 -40 -75 -40 -19 0 -19 9 2 32 17 19 73 25 73 8z m1694 -73 c16 -31 27 -59
25 -61 -2 -2 -39 17 -82 44 l-77 48 37 15 c21 9 45 15 53 14 8 -1 28 -28 44
-60z m-3224 22 c24 -19 24 -19 -17 1 -24 11 -43 22 -43 24 0 9 37 -6 60 -25z
m-371 10 c17 -6 31 -14 31 -17 0 -4 -27 -24 -60 -44 -33 -20 -60 -32 -60 -26
0 18 41 98 49 98 5 0 22 -5 40 -11z m3554 -72 c60 -37 67 -45 62 -67 -29 -123
-230 -178 -382 -104 -53 25 -119 92 -105 105 4 4 74 35 156 68 168 67 156 68
269 -2z m-3330 -18 c84 -34 156 -65 161 -70 13 -12 -44 -62 -101 -90 -37 -18
-66 -23 -128 -23 -97 -1 -161 21 -204 70 -43 49 -50 81 -20 102 44 32 114 72
127 72 7 0 81 -28 165 -61z m472 -81 c15 -14 -19 0 -141 57 -61 29 -113 59
-116 67 -6 13 232 -101 257 -124z m452 40 c26 -24 29 -34 11 -35 -7 -1 -58 -4
-114 -8 -87 -7 -104 -5 -128 10 -14 10 -25 20 -22 22 6 7 155 31 195 32 23 1
43 -6 58 -21z m1422 2 c9 -5 3 -13 -24 -30 -34 -21 -41 -22 -103 -12 -37 6
-76 10 -87 7 -11 -2 -35 -6 -54 -9 l-33 -6 28 29 c16 16 43 31 59 34 39 6 196
-3 214 -13z m-1359 -15 c13 -14 21 -25 18 -25 -2 0 -15 11 -28 25 -13 14 -21
25 -18 25 2 0 15 -11 28 -25z m-1296 -39 c79 -161 324 -185 470 -44 l51 49 69
-27 c67 -26 68 -27 47 -43 -11 -9 -90 -51 -174 -93 -268 -137 -432 -155 -555
-61 l-34 26 17 -27 c32 -48 99 -79 184 -84 102 -6 179 21 423 145 l188 96 40
-13 c22 -7 37 -16 33 -20 -15 -12 -329 -159 -403 -188 -169 -67 -337 -86 -432
-49 -140 54 -145 188 -12 327 31 33 58 60 59 60 2 0 14 -24 29 -54z m1514 -7
c56 -27 102 -54 102 -59 0 -5 25 -36 56 -69 31 -34 51 -61 45 -61 -6 0 -16 9
-23 20 -7 11 -16 20 -21 20 -4 0 -5 -5 -1 -11 18 -30 -88 22 -138 67 -21 19
-63 48 -93 65 -31 17 -54 33 -52 35 13 13 214 -101 246 -139 7 -9 19 -17 25
-17 6 1 -11 21 -39 45 -54 49 -152 103 -232 130 -29 9 -53 21 -53 27 0 19 74
-3 178 -53z m832 46 c-7 -8 -17 -15 -22 -15 -6 0 -5 7 2 15 7 8 17 15 22 15 6
0 5 -7 -2 -15z m1453 -55 c118 -132 115 -249 -8 -310 -44 -21 -62 -25 -145
-23 -155 2 -259 36 -590 196 l-154 75 38 16 37 15 217 -108 c120 -60 248 -118
286 -130 74 -23 159 -27 220 -10 37 10 126 82 126 101 0 6 -18 -6 -39 -25 -22
-20 -57 -40 -78 -46 -59 -17 -161 -13 -243 9 -73 20 -464 209 -454 220 3 3 40
19 82 37 l76 31 17 -26 c69 -114 240 -171 374 -126 60 21 142 97 151 142 8 40
23 33 87 -38z m-1063 54 c0 -7 -71 -36 -77 -30 -3 2 8 11 24 20 29 16 53 20
53 10z m-1765 -24 c34 -23 31 -25 -14 -9 -17 6 -31 15 -31 20 0 14 12 11 45
-11z m1295 4 c-8 -8 -44 -33 -81 -55 -37 -21 -71 -44 -74 -49 -16 -25 -22 -6
-7 21 12 20 39 41 87 64 78 38 94 43 75 19z m-924 -76 c73 -60 74 -62 56 -80
-18 -18 -21 -18 -110 13 -51 18 -92 38 -92 45 0 7 -11 26 -25 42 -29 35 -24
39 53 41 38 1 50 -5 118 -61z m959 52 c-3 -5 -16 -15 -28 -21 -21 -10 -21 -9
2 10 25 23 36 27 26 11z m222 4 l30 -6 -26 -28 c-16 -16 -64 -42 -121 -64
l-95 -36 -36 18 -36 18 45 40 c61 52 154 75 239 58z m-1447 -14 c0 -5 -4 -10
-10 -10 -5 0 -10 5 -10 10 0 6 5 10 10 10 6 0 10 -4 10 -10z m67 -22 c43 -40
28 -50 -26 -17 -27 16 -31 23 -20 30 19 12 20 12 46 -13z m269 -23 c30 -25 52
-45 49 -45 -10 0 -90 57 -104 74 -24 29 -2 17 55 -29z m744 -54 c0 -9 -111
-71 -126 -71 -5 0 16 14 46 31 30 16 59 34 64 39 12 12 16 12 16 1z m109 -20
c11 -7 -2 -14 -45 -26 -32 -10 -62 -19 -66 -22 -5 -2 -8 2 -8 10 0 16 55 47
85 47 11 0 26 -4 34 -9z m-771 -32 c26 -16 38 -28 27 -25 -11 3 -41 10 -68 17
-38 9 -45 14 -36 25 16 20 23 18 77 -17z m37 21 c3 -6 -1 -7 -9 -4 -18 7 -21
14 -7 14 6 0 13 -4 16 -10z m1231 -45 c9 -47 -2 -72 -38 -84 -43 -15 -96 1
-136 40 -18 18 -31 34 -29 36 2 2 42 16 88 32 93 31 105 29 115 -24z m-1716 4
c41 -13 77 -24 79 -26 3 -2 -6 -14 -19 -28 -47 -50 -141 -55 -162 -9 -13 28
-2 97 15 91 7 -2 46 -15 87 -28z m1215 -89 c-3 -5 -16 -10 -28 -9 -21 0 -21 1
-2 9 28 12 37 12 30 0z m-391 -20 c15 0 16 -3 6 -15 -17 -21 -34 -19 -56 7
-19 21 -19 21 6 15 14 -4 33 -7 44 -7z m256 -3 c0 -18 -48 -67 -77 -78 -27
-10 -93 -12 -93 -3 0 4 10 23 22 42 22 35 22 35 36 14 8 -12 19 -22 25 -22 5
0 3 8 -6 18 -25 27 -22 31 31 35 26 2 50 4 55 5 4 1 7 -4 7 -11z m-440 -4 c0
-3 -8 -16 -17 -27 -15 -19 -14 -18 7 1 l24 22 23 -31 c13 -18 23 -36 23 -40 0
-13 -68 -9 -103 6 -28 11 -67 53 -67 71 0 3 25 5 55 5 30 0 55 -3 55 -7z m125
-16 l27 -22 -36 -17 -35 -17 -26 33 c-14 18 -25 36 -25 39 0 17 71 5 95 -16z
m175 16 c0 -5 -13 -23 -28 -40 -27 -32 -27 -32 -60 -16 l-33 16 22 23 c16 17
33 24 61 24 21 0 38 -3 38 -7z"/>
<path d="M5228 10393 c6 -2 18 -2 25 0 6 3 1 5 -13 5 -14 0 -19 -2 -12 -5z"/>
<path d="M5598 10393 c7 -3 16 -2 19 1 4 3 -2 6 -13 5 -11 0 -14 -3 -6 -6z"/>
<path d="M1218 7686 c-48 -17 -71 -33 -135 -91 -73 -65 -174 -91 -261 -66 -35
10 -35 5 -3 -33 15 -18 15 -19 -12 -12 -33 8 -32 4 22 -62 28 -36 32 -45 20
-53 -11 -8 -10 -12 9 -27 27 -21 20 -32 -19 -32 -19 0 -30 6 -34 20 -4 11 -15
20 -26 20 -11 0 -17 5 -14 10 3 6 15 10 26 10 12 0 19 7 19 20 0 11 -1 20 -3
20 -1 0 -57 7 -122 15 -66 8 -123 15 -127 15 -5 0 -8 -13 -8 -30 0 -20 -5 -30
-15 -30 -18 0 -29 -40 -20 -72 4 -13 20 -46 36 -74 l29 -52 98 29 c53 16 116
36 139 43 41 14 45 13 87 -10 24 -13 75 -32 113 -42 38 -10 68 -22 66 -27 -1
-6 6 -21 17 -35 l20 -25 -10 30 c-9 28 -9 29 5 11 17 -23 20 -14 5 15 -8 15
-7 19 4 19 7 0 16 -6 19 -13 8 -22 -7 -72 -23 -76 -138 -33 -180 -45 -236 -71
-299 -135 -484 -463 -484 -859 0 -241 59 -434 202 -661 l54 -86 -53 -37 c-66
-47 -116 -113 -184 -246 -50 -97 -54 -108 -54 -175 0 -59 4 -78 27 -116 15
-25 40 -72 56 -105 16 -33 50 -84 76 -112 l48 -53 -28 -32 c-31 -38 -104 -184
-103 -207 0 -9 6 0 13 19 21 55 61 131 95 177 l30 42 55 -30 c30 -16 78 -33
106 -36 56 -6 55 -14 -3 -33 -54 -17 -140 -100 -168 -162 -20 -43 -24 -69 -24
-143 1 -105 20 -152 85 -207 96 -83 261 -78 344 11 23 24 32 28 43 19 12 -9
14 -4 14 28 0 21 2 69 5 106 3 37 2 74 -4 83 -6 11 -7 -2 -4 -39 2 -30 1 -67
-2 -81 -7 -26 -8 -26 -31 -11 -35 23 -81 20 -99 -6 -18 -25 -21 -54 -7 -62 4
-3 6 5 4 17 -3 14 2 29 13 38 10 8 15 9 11 2 -10 -16 24 -33 51 -26 37 9 12
-48 -36 -81 -50 -35 -129 -45 -200 -25 -68 19 -135 88 -152 158 -32 133 32
270 150 324 69 31 182 28 254 -7 122 -60 195 -209 196 -396 0 -72 2 -68 -112
-227 l-59 -82 -32 19 c-39 24 -109 26 -147 4 -65 -39 -80 -125 -31 -175 16
-16 37 -29 45 -29 9 0 16 -3 16 -6 0 -4 -29 -45 -64 -93 -138 -188 -240 -357
-297 -493 -17 -43 -38 -78 -45 -78 -21 0 -71 -48 -78 -76 -6 -24 -10 -25 -47
-19 -56 10 -120 -10 -170 -53 -42 -36 -89 -119 -89 -157 1 -11 8 3 18 30 38
109 111 165 215 165 56 0 57 -1 83 -41 24 -39 25 -45 15 -103 -5 -33 -13 -78
-16 -99 -6 -40 -7 -40 -65 -19 -13 5 -13 3 -1 -11 11 -15 11 -17 -2 -17 -19 0
-57 -47 -57 -71 0 -19 25 -49 42 -49 6 0 3 9 -8 21 -13 15 -16 24 -8 36 14 22
45 32 72 22 20 -8 22 -15 22 -82 0 -43 -5 -78 -12 -85 -8 -8 -8 -12 -1 -12 14
0 22 -49 33 -200 11 -154 28 -220 83 -332 l42 -86 -17 -39 c-23 -51 -22 -121
2 -185 19 -49 19 -54 4 -65 -15 -11 -14 -14 12 -23 16 -6 53 -23 83 -38 65
-33 47 -38 -59 -18 -41 8 -76 13 -77 12 -2 -1 7 -29 18 -62 45 -127 62 -317
39 -434 -4 -25 -7 -46 -6 -47 1 -1 132 128 290 286 l289 289 -68 -19 c-38 -10
-91 -23 -119 -28 l-50 -9 25 19 c13 10 58 25 99 34 92 21 111 35 47 35 -26 0
-47 4 -47 9 0 20 29 28 93 23 l67 -4 0 -37 c0 -46 70 -255 113 -335 50 -96
157 -196 269 -250 130 -64 198 -80 343 -80 100 0 137 5 225 28 184 50 391 137
637 269 106 56 125 63 140 52 16 -12 -8 -26 -207 -124 -242 -118 -371 -170
-518 -207 -328 -83 -583 -41 -778 128 l-59 52 50 -52 c58 -61 53 -67 -13 -16
-45 35 -45 34 8 -16 111 -105 258 -170 434 -192 153 -19 299 5 591 98 61 19
138 38 172 41 57 5 63 4 88 -21 22 -22 26 -33 21 -59 -8 -42 -48 -77 -90 -77
-43 0 -66 18 -76 60 -7 33 -8 33 -9 7 -2 -43 38 -77 89 -77 86 0 131 93 76
157 -22 26 -30 28 -88 26 -43 -1 -117 -18 -230 -52 -243 -72 -313 -85 -453
-84 -66 0 -137 4 -158 9 -27 6 16 9 145 9 173 1 189 3 299 32 166 45 304 102
544 223 195 98 213 105 245 97 19 -5 67 -7 105 -5 84 6 155 38 226 105 l49 46
0 -68 c0 -140 97 -244 230 -249 114 -3 179 88 108 154 -61 57 -162 -18 -123
-92 12 -25 12 -28 -1 -28 -23 0 -87 36 -109 62 -49 55 -49 55 6 54 46 -1 54 2
85 36 29 33 41 65 35 101 -2 13 16 7 33 -12 15 -16 61 -40 109 -55 13 -4 17
-17 17 -60 0 -114 85 -211 207 -236 61 -13 110 -9 188 17 69 23 156 109 179
181 10 28 20 52 23 52 12 0 104 -59 157 -102 78 -62 240 -143 341 -169 163
-43 377 -25 531 45 l50 23 40 -20 c52 -27 192 -63 279 -72 96 -9 219 9 345 52
192 64 283 114 450 246 84 66 165 111 182 101 6 -4 8 -3 5 3 -8 12 20 26 148
70 85 30 108 34 155 29 107 -13 205 -78 246 -164 31 -67 31 -182 0 -182 -12 0
-12 4 0 29 34 69 -45 139 -115 101 -31 -16 -46 -65 -31 -100 14 -35 35 -48 98
-64 42 -11 42 -11 26 -35 -9 -13 -35 -32 -58 -42 -22 -10 -35 -19 -28 -19 24
0 70 29 99 63 15 19 46 40 67 47 53 17 128 94 144 146 42 142 -19 293 -150
372 -152 91 -368 76 -605 -43 -71 -36 -102 -47 -98 -36 4 9 11 50 18 92 9 64
8 89 -6 155 -58 273 -102 363 -219 450 -89 65 -169 88 -290 82 l-99 -5 -20 38
c-20 40 -61 61 -81 41 -7 -7 -17 -8 -27 -3 -9 5 -42 8 -73 7 -74 -2 -104 -29
-165 -153 -49 -98 -51 -120 -13 -160 28 -30 26 -33 -21 -33 -83 0 -149 -61
-149 -137 0 -69 26 -91 146 -127 l75 -22 -47 -23 c-42 -21 -56 -23 -135 -18
-51 3 -103 13 -124 23 -34 16 -35 17 -20 40 18 28 5 32 -18 6 -20 -22 -23 -54
-4 -46 7 2 22 -4 32 -16 16 -18 9 -30 -9 -13 -3 4 -16 8 -28 10 -12 2 -33 11
-46 19 -14 9 -21 11 -18 5 4 -6 20 -18 37 -26 16 -9 29 -19 29 -24 0 -12 -41
-2 -61 15 -9 8 -19 11 -22 7 -4 -3 -19 4 -34 18 l-28 24 20 -24 c11 -13 40
-32 65 -43 l45 -20 -134 -33 c-125 -32 -164 -45 -130 -45 8 0 35 7 61 14 26 8
80 17 120 20 l73 6 -107 -28 c-60 -16 -111 -32 -115 -36 -7 -8 12 -3 57 12 8
3 1 -10 -16 -29 -42 -48 -63 -81 -26 -42 17 17 32 29 35 26 3 -2 18 2 34 10
46 24 126 37 292 47 86 5 164 12 172 15 12 5 14 -6 11 -62 -3 -75 16 -122 60
-143 22 -11 22 -10 4 4 -38 31 -56 70 -55 121 1 77 7 85 88 111 39 13 85 31
100 40 35 21 64 14 120 -26 29 -22 51 -49 68 -87 22 -48 25 -65 21 -132 -11
-187 -135 -311 -340 -342 -84 -12 -219 0 -226 21 -2 5 -9 7 -15 3 -7 -3 -9 -2
-4 2 4 5 18 10 30 12 97 15 156 58 177 130 18 59 6 106 -35 142 -20 17 -48 33
-63 36 -15 4 -34 11 -42 16 -44 28 -80 37 -138 35 -105 -5 -156 -61 -155 -170
1 -77 28 -137 88 -196 25 -24 45 -47 45 -51 0 -4 -23 -17 -52 -29 -66 -28
-141 -29 -243 -1 -235 65 -415 181 -430 278 -12 78 -28 118 -60 150 -35 35
-62 41 -98 22 -28 -15 -36 -28 -38 -59 -1 -23 -2 -23 -11 6 -14 43 10 92 68
139 47 39 53 55 29 75 -8 7 -15 17 -15 22 0 6 13 -4 29 -21 48 -52 128 -34
183 40 29 39 35 133 13 200 -33 97 -143 179 -241 179 -14 0 -43 20 -74 50 -99
97 -249 150 -421 150 -83 0 -211 -17 -268 -35 -13 -4 -16 5 -17 59 0 47 -7 77
-25 113 l-24 49 93 -47 c189 -97 360 -103 458 -17 49 43 67 83 67 149 0 104
-56 174 -140 174 -38 0 -49 -5 -74 -33 -36 -41 -39 -90 -6 -126 32 -36 68 -42
98 -16 l24 20 -31 -17 c-30 -16 -33 -16 -58 1 -94 61 -3 190 97 137 75 -40 83
-177 14 -248 -47 -50 -103 -67 -195 -60 -97 6 -182 38 -315 117 -139 83 -212
104 -352 104 -140 0 -202 -22 -279 -98 -81 -81 -174 -283 -211 -456 -7 -32 -9
-29 -25 52 -36 177 -116 324 -250 458 -78 79 -110 103 -180 138 -83 41 -272
92 -339 92 -58 0 -62 6 -33 62 20 40 27 68 30 137 5 103 -18 183 -77 272 -29
44 -34 55 -19 51 28 -7 48 17 48 58 0 43 -27 83 -72 106 l-31 16 21 -27 c12
-15 22 -35 22 -45 0 -10 9 -28 20 -42 l19 -25 -24 5 c-16 3 -27 -1 -31 -11 -5
-13 -14 -9 -52 20 -54 42 -111 68 -165 78 -28 6 -37 11 -33 22 3 8 6 24 6 35
0 19 4 20 58 14 31 -4 71 -9 87 -11 24 -4 26 -3 9 4 -11 5 -50 12 -87 16 l-66
7 -15 45 c-9 25 -27 61 -42 80 l-25 33 53 63 c151 174 276 408 293 548 8 64
-7 131 -36 160 -20 20 -83 27 -94 9 -3 -5 -2 -10 3 -10 5 0 14 -11 20 -24 8
-17 21 -26 43 -28 18 -2 35 -9 37 -17 3 -10 -1 -12 -17 -8 -30 7 -38 -31 -16
-74 11 -21 12 -29 4 -21 -23 22 -27 13 -12 -30 28 -80 1 -167 -100 -321 -57
-87 -174 -237 -185 -237 -4 0 -20 10 -35 23 l-28 22 55 105 c96 186 136 355
135 574 0 72 -4 149 -8 171 -4 22 -5 -32 -3 -121 7 -244 -32 -428 -129 -614
-52 -101 -65 -118 -78 -105 -7 8 1 33 29 85 150 288 138 664 -30 925 -37 58
-38 61 -29 115 12 75 12 283 -1 350 -40 210 -130 362 -273 457 -99 66 -168 88
-287 88 -52 0 -114 -4 -136 -8 l-42 -8 -11 64 c-34 194 18 467 107 560 35 38
96 73 151 87 l44 12 -6 71 c-8 89 -39 152 -96 192 -39 27 -50 30 -119 30 -65
-1 -85 -5 -129 -29 -63 -35 -101 -73 -147 -150 -45 -75 -46 -66 -3 27 44 93
105 169 164 204 67 39 165 40 240 0 29 -15 54 -27 56 -27 11 0 68 144 78 195
21 114 -32 214 -140 265 -60 28 -58 30 54 66 109 35 287 44 404 20 313 -64
536 -288 558 -562 10 -125 -31 -244 -93 -270 -78 -33 -176 36 -264 184 -57 97
-98 111 -143 50 -45 -60 -27 -169 44 -258 91 -116 196 -138 303 -65 45 30 40
20 -33 -65 -146 -171 -188 -306 -145 -461 24 -84 103 -169 158 -169 12 0 10 8
-9 35 -42 63 -60 132 -59 230 2 142 50 263 174 435 56 77 100 217 100 316 0
162 -59 293 -190 424 -134 135 -293 206 -483 217 -92 6 -99 7 -112 32 l-15 26
6 -27 c6 -25 3 -28 -20 -28 -19 0 -26 5 -26 20 0 11 5 20 11 20 7 0 8 11 4 30
-5 24 -3 30 10 30 36 0 148 65 199 116 30 29 65 77 80 107 25 54 27 55 63 52
21 -1 28 0 16 2 -26 5 -30 21 -8 29 11 5 9 11 -10 32 -14 15 -25 30 -25 34 0
5 -6 8 -14 8 -8 0 -24 13 -35 29 -12 16 -43 43 -69 60 -54 34 -94 38 -154 17z
m-183 -2250 c79 -21 154 -64 217 -124 143 -136 207 -333 195 -594 -3 -66 -8
-122 -11 -125 -3 -3 -28 15 -56 40 -28 26 -75 60 -104 77 -46 26 -53 33 -48
55 6 32 22 43 22 16 0 -30 9 -26 47 19 19 22 49 44 66 49 29 8 27 9 -24 10
-65 1 -114 -25 -139 -75 -24 -47 -47 -30 -116 87 -34 57 -103 162 -153 232
-91 126 -115 170 -152 274 l-18 53 27 6 c15 3 32 7 37 9 27 9 166 3 210 -9z
m-286 -138 c37 -51 67 -94 66 -96 -2 -2 -23 7 -47 19 -57 30 -177 38 -231 16
-20 -9 -37 -13 -37 -8 0 24 146 160 172 161 4 0 39 -42 77 -92z m-42 -452 c24
-8 65 -30 93 -48 l50 -33 -67 -31 c-38 -17 -99 -54 -136 -83 -56 -43 -71 -50
-83 -40 -24 20 -83 105 -99 142 -13 33 -13 37 7 62 32 41 74 56 138 51 30 -3
74 -12 97 -20z m204 -143 c25 -27 65 -77 91 -113 73 -104 84 -135 39 -111 -29
16 -166 41 -190 34 -52 -13 -251 47 -251 76 0 28 211 161 255 161 7 0 32 -21
56 -47z m323 13 c75 -37 166 -106 187 -143 10 -19 8 -39 -14 -122 -14 -55 -41
-135 -58 -178 l-33 -77 -26 134 c-29 143 -62 250 -109 355 -17 36 -27 65 -24
65 3 0 38 -15 77 -34z m311 -322 c82 -161 110 -333 86 -518 -23 -169 -120
-407 -159 -391 -10 4 -45 9 -79 12 -41 4 -63 10 -63 18 0 7 8 48 17 91 21 98
23 320 5 424 l-14 75 35 80 c41 93 85 222 94 277 3 22 11 37 17 35 6 -1 34
-48 61 -103z m-410 -695 c-40 -159 -83 -259 -122 -282 l-31 -18 24 69 c13 37
26 94 28 125 4 50 12 67 62 136 32 44 60 79 62 77 2 -2 -8 -50 -23 -107z
m-164 12 l22 -18 -22 -32 -23 -32 -19 20 c-33 35 -104 42 -104 11 0 -11 11
-14 46 -12 68 5 80 -16 38 -68 -37 -46 -57 -50 -96 -16 -22 19 -28 32 -28 66
0 35 6 47 33 71 26 24 41 29 81 29 33 0 56 -6 72 -19z m9 -243 c-30 -83 -32
-86 -111 -148 -44 -35 -107 -93 -141 -129 l-60 -66 38 60 c55 89 88 137 199
288 89 120 100 133 103 108 2 -15 -11 -66 -28 -113z m453 7 c20 -3 37 -10 37
-14 0 -13 -121 -150 -200 -226 -40 -38 -70 -63 -67 -55 3 8 24 59 46 112 22
54 46 117 53 140 18 62 15 61 131 43z m87 -35 c0 -15 -81 -114 -164 -199 -44
-47 -59 -65 -31 -41 61 54 151 154 185 203 14 20 28 37 31 37 18 0 100 -86
118 -123 32 -67 29 -74 -36 -82 -92 -10 -172 -34 -260 -75 -46 -21 -83 -41
-83 -44 0 -2 34 11 74 30 100 46 318 95 331 75 2 -4 2 -17 -1 -28 -5 -18 -16
-21 -97 -26 -137 -8 -268 -54 -425 -148 l-54 -32 27 54 c18 36 75 103 169 199
77 80 152 162 165 182 22 31 51 42 51 18z m-606 -267 c-60 -114 -140 -270
-179 -345 -49 -97 -75 -138 -87 -138 -16 0 -15 6 8 58 13 31 78 158 142 282
65 124 128 248 141 276 19 43 68 91 79 79 3 -2 -44 -98 -104 -212z m-4 132 c0
-3 -38 -77 -84 -163 -46 -86 -118 -225 -159 -308 -48 -96 -82 -153 -94 -156
-16 -4 -18 3 -17 91 1 84 4 103 29 151 53 103 120 195 214 293 84 87 111 109
111 92z m760 -160 c0 -4 -7 -19 -15 -35 -17 -32 -63 -68 -103 -80 -17 -5 -20
-9 -9 -9 39 -2 107 52 142 113 10 17 14 17 74 -4 139 -46 243 -156 285 -299
32 -109 12 -254 -42 -303 -23 -21 -25 -21 -17 -3 21 54 26 93 17 126 -9 29
-10 31 -11 9 -2 -43 -26 -67 -76 -74 -48 -8 -71 -26 -33 -27 13 0 32 -4 42 -8
16 -6 10 -11 -30 -24 -47 -15 -50 -15 -71 5 -12 11 -27 33 -34 49 -6 16 -14
28 -16 25 -7 -7 17 -48 45 -78 19 -21 22 -28 11 -31 -92 -26 -157 -45 -169
-51 -12 -5 -19 8 -33 63 -28 109 -95 189 -194 233 -35 16 -75 23 -148 26 -110
5 -188 -10 -282 -53 -29 -13 -53 -22 -53 -19 0 3 30 59 66 125 60 107 73 124
123 158 103 69 239 133 331 156 54 13 200 20 200 10z m-1213 -319 c-3 -8 -11
-32 -18 -55 -13 -45 -16 -47 -42 -27 -20 15 -15 39 16 74 23 24 52 30 44 8z
m88 -100 c-8 -59 -30 -95 -48 -77 -6 6 -2 24 12 53 11 25 21 57 21 73 0 21 3
26 11 18 7 -7 8 -31 4 -67z m819 19 c131 -28 218 -112 251 -243 9 -35 15 -65
13 -66 -2 -1 -37 -22 -78 -46 -41 -24 -113 -81 -161 -127 -52 -50 -94 -83
-107 -83 -12 0 -47 -10 -78 -21 -74 -28 -136 -91 -159 -160 -23 -69 -16 -177
15 -241 l24 -47 -30 -108 c-27 -102 -31 -108 -57 -111 -15 -2 -52 8 -82 22
-46 21 -55 29 -55 51 0 15 -18 52 -39 83 -94 136 -114 345 -50 535 93 280 386
480 529 361 31 -27 40 -47 16 -38 -8 3 -16 15 -19 26 -5 18 -11 20 -52 16
-118 -14 -165 -161 -71 -219 39 -24 78 -24 144 0 28 11 52 16 52 13 1 -4 10 4
20 17 24 28 26 64 5 81 -12 10 -13 16 -4 26 9 11 8 14 -3 14 -8 0 -26 17 -39
37 -37 56 -71 76 -138 81 -197 14 -420 -202 -486 -471 -16 -67 -23 -256 -10
-277 3 -5 4 -10 1 -10 -3 0 -13 14 -22 32 -13 26 -15 52 -11 137 7 151 60 302
197 561 44 84 46 86 120 123 72 37 181 64 260 66 19 0 66 -6 104 -14z m-944
-42 c0 -13 -3 -13 -15 -3 -8 7 -15 16 -15 21 0 5 7 6 15 3 8 -4 15 -13 15 -21z
m225 -55 c-4 -13 -16 -41 -27 -63 -11 -22 -26 -53 -34 -68 -8 -16 -14 -36 -15
-45 0 -12 -3 -10 -9 6 -9 22 -4 42 44 155 18 41 52 54 41 15z m-81 -35 c-24
-57 -38 -66 -31 -19 6 35 20 55 39 56 4 0 0 -17 -8 -37z m-54 -25 c0 -2 -14
-43 -30 -93 -29 -85 -30 -87 -26 -39 5 54 33 134 47 134 5 0 9 -1 9 -2z m20
-58 c0 -5 -5 -20 -11 -33 -6 -13 -26 -80 -45 -148 -19 -68 -32 -105 -30 -83 5
56 67 274 78 274 4 0 8 -4 8 -10z m726 -29 c-3 -5 10 -11 30 -14 64 -11 79
-40 49 -97 -19 -37 -35 -39 -35 -4 0 16 -4 23 -11 18 -6 -3 -9 -20 -7 -36 4
-24 0 -31 -19 -39 -38 -14 -85 3 -110 41 -13 18 -23 41 -23 51 0 25 46 77 73
82 40 8 58 7 53 -2z m593 -65 c-31 -12 -72 -32 -91 -44 -35 -22 -113 -101
-135 -138 -7 -12 -6 0 3 30 8 27 14 64 14 82 0 31 3 33 63 53 78 26 134 39
172 40 25 0 21 -3 -26 -23z m-1307 -49 c-36 -122 -53 -199 -60 -267 -8 -68 -9
-72 -16 -39 -14 65 55 382 77 360 8 -8 8 -23 -1 -54z m1691 27 c269 -61 483
-296 552 -609 28 -123 17 -291 -25 -418 -54 -162 -59 -167 -268 -280 -330
-180 -501 -244 -672 -254 -115 -6 -210 12 -307 58 -86 41 -187 140 -227 223
-29 61 -62 215 -49 226 5 4 31 12 60 19 l52 12 58 -58 c114 -112 230 -163 390
-171 157 -7 277 25 395 106 24 16 59 32 79 36 55 10 99 66 99 127 0 26 2 31
13 20 7 -7 12 -39 12 -84 -1 -58 -6 -82 -27 -123 -61 -117 -161 -208 -298
-273 -100 -48 -193 -64 -323 -58 -127 5 -198 26 -287 83 l-55 35 39 -36 c219
-198 660 -130 882 135 82 99 116 237 79 320 -17 37 -17 39 9 102 101 253 24
551 -174 678 -47 30 -145 61 -190 59 -14 0 5 -7 41 -14 91 -18 155 -53 216
-117 91 -97 133 -212 133 -368 0 -106 -30 -237 -65 -278 -4 -5 -75 28 -75 36
0 4 7 30 16 57 22 71 22 216 -1 284 -19 59 -71 123 -119 148 -40 21 -113 20
-153 0 -18 -10 -40 -32 -49 -49 l-16 -32 -14 27 c-19 35 -63 57 -114 57 -85 0
-135 -101 -74 -149 15 -12 36 -21 48 -20 16 1 14 3 -9 10 -56 16 -71 66 -34
113 17 22 28 26 69 26 39 0 54 -5 79 -29 26 -24 31 -36 31 -76 0 -62 -23 -103
-71 -124 -38 -17 -41 -17 -92 0 -28 10 -59 18 -68 19 -19 0 -61 44 -82 85 -30
59 -41 146 -29 210 35 172 153 274 367 319 49 10 182 5 248 -10z m-603 -52 c0
-10 -7 -42 -15 -70 -9 -29 -13 -58 -9 -65 4 -6 4 -9 -1 -5 -4 4 -20 -9 -35
-30 -46 -63 -50 -65 -109 -39 l-52 23 36 47 c35 46 160 157 177 157 4 0 8 -8
8 -18z m1891 -114 c113 -52 169 -133 169 -244 l0 -63 -55 -20 c-69 -26 -174
-79 -245 -124 l-54 -35 -28 19 c-65 47 -102 159 -79 241 39 135 197 172 286
66 44 -52 28 -150 -30 -176 -52 -24 -97 -12 -123 33 -6 11 -12 14 -12 7 0 -7
11 -24 25 -37 52 -53 149 -19 175 60 38 114 -106 230 -227 184 -135 -51 -165
-264 -54 -376 l38 -38 -95 -80 c-53 -44 -132 -120 -175 -170 -44 -49 -82 -91
-86 -92 -3 -1 -23 -4 -44 -8 -23 -4 -53 -20 -78 -42 l-39 -35 15 35 c8 19 37
131 65 248 61 257 90 349 142 451 91 176 178 231 359 225 76 -3 106 -9 150
-29z m-1940 -110 l-17 -66 -23 24 -23 24 39 44 c21 24 39 43 39 43 1 -1 -6
-32 -15 -69z m-305 0 c-71 -99 -156 -276 -173 -359 -3 -16 -9 -29 -13 -29 -17
0 -42 88 -42 150 -1 76 19 130 65 179 36 37 119 81 156 81 22 0 23 -1 7 -22z
m218 -27 c50 -35 71 -63 80 -111 4 -19 17 -63 28 -96 12 -34 18 -69 15 -78
-10 -26 -34 -18 -40 12 -9 45 -53 82 -96 81 -20 -1 -27 -3 -16 -6 11 -2 30 -6
42 -9 24 -5 53 -50 53 -81 0 -13 -18 -24 -68 -41 -37 -12 -75 -25 -84 -28 -27
-10 -60 68 -66 153 -5 75 6 140 35 206 15 35 20 38 45 33 16 -3 48 -19 72 -35z
m-171 -19 c-3 -12 -9 -22 -14 -22 -5 0 -3 11 3 25 13 30 20 28 11 -3z m-18
-130 l0 -99 -29 0 c-27 0 -28 1 -22 41 9 59 37 156 45 156 4 0 7 -44 6 -98z
m870 59 c49 -22 98 -76 116 -128 21 -57 17 -225 -7 -292 -17 -49 -23 -55 -63
-70 -54 -20 -82 -55 -88 -113 -5 -41 -10 -48 -56 -78 -48 -32 -135 -70 -158
-70 -6 0 6 17 26 38 74 76 99 166 72 254 -15 47 -32 74 -97 150 -22 26 -30 43
-23 45 30 10 63 47 78 88 l18 44 25 -19 c14 -11 38 -19 56 -19 29 1 28 2 -8 9
-118 23 -80 179 44 179 14 0 43 -8 65 -18z m-1737 -91 l0 -35 -9 40 c-4 22 -8
49 -7 60 0 16 2 15 8 -5 4 -14 8 -41 8 -60z m5787 64 c116 -29 216 -111 268
-217 15 -30 27 -58 27 -61 0 -4 -18 7 -40 23 -80 58 -200 65 -291 18 l-45 -24
6 42 c8 53 -5 188 -20 212 -10 16 -11 15 -6 -7 3 -14 1 -41 -4 -60 -4 -19 -8
-27 -9 -18 -1 9 -5 19 -9 22 -10 6 -9 -25 2 -42 11 -19 -2 -142 -18 -166 -19
-28 -66 -82 -66 -76 0 3 9 23 20 44 24 48 43 138 38 182 -2 19 1 34 7 35 5 0
4 3 -2 6 -7 2 -14 14 -14 26 -1 12 -5 4 -10 -18 -4 -22 -6 -53 -3 -70 3 -16 1
-41 -5 -55 -8 -22 -10 -18 -10 27 -1 28 -4 59 -8 69 -4 12 -3 15 5 10 7 -4 12
-3 12 3 0 5 -5 11 -11 13 -6 2 -12 22 -13 43 l-1 40 43 0 c23 0 42 3 42 8 0
12 52 8 115 -9z m-2082 -49 c97 -17 192 -61 252 -116 l46 -43 -44 -13 c-26 -7
-66 -32 -93 -56 -39 -35 -59 -45 -94 -49 -70 -8 -119 -36 -151 -87 -16 -25
-29 -52 -29 -60 -1 -41 -14 -43 -106 -15 -71 21 -117 27 -226 31 -76 3 -138 8
-138 11 0 18 70 109 116 152 160 145 383 175 611 80 65 -27 29 2 -45 37 -80
38 -148 53 -238 53 -127 0 -231 -38 -336 -124 -50 -41 -135 -152 -151 -198 -4
-11 -17 -18 -31 -18 -45 0 -249 -58 -364 -103 -61 -25 -114 -41 -117 -37 -7
12 189 214 272 281 70 56 74 57 109 47 105 -29 254 43 304 147 24 50 44 59
168 80 102 17 190 17 285 0z m-2927 -59 c-7 -66 -38 -141 -61 -149 -19 -8 -19
-7 27 121 17 45 32 82 35 82 3 0 3 -24 -1 -54z m4921 7 c-3 -10 -5 -4 -5 12 0
17 2 24 5 18 2 -7 2 -21 0 -30z m-5690 -25 c-3 -8 -6 -5 -6 6 -1 11 2 17 5 13
3 -3 4 -12 1 -19z m79 -80 c3 -13 17 -44 30 -69 22 -43 22 -59 3 -59 -19 0
-89 173 -89 219 0 18 44 -55 56 -91z m3134 91 c0 -7 -21 -33 -47 -59 -35 -35
-63 -52 -102 -64 -58 -17 -121 -21 -121 -8 0 14 236 142 263 142 4 0 7 -5 7
-11z m2280 -97 c11 -40 11 -55 2 -64 -21 -21 -30 3 -37 92 -5 78 -5 82 8 55 8
-16 20 -54 27 -83z m-115 67 c-9 -17 -19 -28 -22 -25 -8 8 17 56 29 56 5 0 1
-14 -7 -31z m-5368 -21 c-3 -8 -6 -5 -6 6 -1 11 2 17 5 13 3 -3 4 -12 1 -19z
m5411 -55 c-2 -13 -7 -12 -28 5 -22 18 -23 22 -11 48 l14 29 14 -34 c8 -18 13
-40 11 -48z m109 15 c-3 -7 -5 -2 -5 12 0 14 2 19 5 13 2 -7 2 -19 0 -25z
m-4387 -92 c-29 -88 -87 -166 -161 -215 -34 -23 -64 -41 -68 -41 -4 0 -22 31
-41 69 l-33 69 22 36 c13 20 38 49 57 65 30 24 42 28 78 24 51 -6 102 16 118
52 12 27 41 38 46 18 2 -7 -6 -42 -18 -77z m134 69 c32 -16 66 -25 96 -25 38
0 51 -5 73 -28 l27 -28 -64 4 c-59 4 -65 2 -99 -27 -47 -42 -63 -90 -48 -142
15 -49 62 -89 104 -88 30 1 30 2 -7 9 -55 10 -86 48 -86 106 0 25 7 59 16 75
41 81 194 75 227 -9 35 -89 29 -196 -16 -264 -61 -92 -293 -130 -382 -64 -18
14 -19 17 -5 42 8 15 30 32 49 39 38 12 81 57 81 83 0 25 -28 62 -55 72 -34
13 -86 -5 -121 -41 -26 -27 -29 -37 -29 -95 0 -35 -2 -64 -6 -64 -3 0 -27 19
-53 42 l-48 41 47 29 c104 65 179 175 205 301 13 66 21 69 94 32z m-1234 -20
c0 -5 -5 -3 -10 5 -5 8 -10 20 -10 25 0 6 5 3 10 -5 5 -8 10 -19 10 -25z
m1035 5 c-11 -12 -30 -20 -49 -19 l-31 1 40 19 c52 24 62 24 40 -1z m2867 -11
c-34 -17 -70 -41 -81 -55 -10 -13 -22 -24 -27 -24 -18 0 64 74 101 91 67 31
73 21 7 -12z m2026 16 c43 -18 122 -92 122 -114 0 -8 -11 0 -25 18 -30 41 -80
78 -131 96 -22 8 -31 14 -21 15 10 0 34 -7 55 -15z m-5053 -14 c3 -5 -17 -32
-45 -60 -34 -34 -50 -45 -50 -33 0 9 16 30 35 45 19 15 35 34 35 42 0 17 16
20 25 6z m3127 -38 c32 -73 44 -163 30 -230 -6 -31 -16 -61 -21 -66 -19 -19
-81 44 -73 76 4 16 -19 6 -51 -23 -47 -40 -60 -78 -55 -149 4 -51 2 -60 -14
-64 -12 -4 -24 6 -40 31 -20 32 -23 50 -23 142 0 94 3 111 28 165 l28 60 35
-37 c44 -48 47 -105 9 -143 -13 -14 -20 -25 -15 -25 5 0 18 12 29 26 36 46 23
122 -28 168 l-21 19 22 25 c21 22 111 72 131 72 4 0 17 -21 29 -47z m102 36
c54 -15 119 -83 135 -142 31 -110 -8 -214 -89 -238 -33 -10 -43 -9 -65 5 -14
9 -25 22 -25 28 0 6 3 8 6 5 4 -3 15 -2 26 4 27 15 20 53 -11 57 -22 3 -23 7
-17 50 6 52 -14 163 -39 211 l-16 31 28 0 c16 0 45 -5 67 -11z m1811 -13 c55
-25 94 -65 127 -129 17 -35 19 -50 13 -116 -15 -158 -81 -341 -139 -384 -57
-43 -61 -41 -18 7 95 103 130 243 80 316 -32 46 -77 78 -87 62 -5 -8 -17 -2
-41 23 -50 51 -104 69 -195 63 -73 -5 -75 -4 -69 16 13 42 56 106 85 127 64
46 166 52 244 15z m-402 0 c3 -8 -3 -22 -13 -31 -19 -17 -19 -16 -7 14 13 36
13 36 20 17z m-5239 -11 c3 -9 0 -15 -9 -15 -16 0 -27 14 -18 24 10 10 21 7
27 -9z m-224 -70 c0 -5 -9 4 -20 20 -11 17 -20 35 -20 40 0 6 9 -3 20 -20 11
-16 20 -34 20 -40z m5077 31 c-12 -18 -23 -32 -25 -31 -6 6 29 65 38 65 5 0
-1 -15 -13 -34z m-103 -3 c-18 -37 -18 -51 5 -96 17 -34 17 -36 1 -27 -39 21
-44 94 -8 137 17 21 18 15 2 -14z m285 -35 l21 -42 -33 -34 c-28 -29 -37 -33
-67 -28 -35 5 -80 45 -80 70 0 22 41 68 74 81 40 17 58 7 85 -47z m48 -15
c-21 -21 -28 -14 -31 32 l-3 37 26 -26 c24 -24 24 -27 8 -43z m33 35 c0 -6 -7
-5 -15 2 -8 7 -15 17 -15 22 0 6 7 5 15 -2 8 -7 15 -17 15 -22z m-5071 -25
c22 -27 37 -70 28 -79 -6 -6 -87 104 -87 118 0 14 37 -10 59 -39z m390 28 c48
-8 59 -49 30 -109 -11 -24 -22 -56 -26 -72 -3 -16 -15 -38 -27 -49 -18 -17
-27 -18 -70 -10 -27 5 -51 11 -54 13 -9 9 10 26 30 26 31 0 93 39 111 70 18
31 24 105 7 95 -5 -3 -10 -18 -10 -33 0 -35 -23 -68 -60 -87 -57 -29 -59 -23
-31 80 23 86 27 94 46 88 11 -3 35 -9 54 -12z m3026 -54 c-26 -57 -45 -138
-45 -193 l0 -34 -62 40 c-33 22 -65 40 -71 40 -15 0 1 80 24 116 29 48 90 80
156 83 l22 1 -24 -53z m-3625 34 c0 -15 129 -149 166 -172 42 -26 34 -41 -25
-43 -22 0 -34 -4 -28 -8 11 -7 -66 -47 -120 -63 -33 -9 -67 60 -67 140 -1 104
5 108 76 39 l62 -59 -52 59 c-67 77 -68 98 -1 26 49 -53 43 -40 -14 33 -16 20
-26 41 -22 47 8 12 25 13 25 1z m3666 -23 c-24 -37 -46 -137 -46 -213 0 -49
-3 -65 -10 -55 -14 22 -12 92 5 168 15 65 50 140 61 129 3 -3 -1 -16 -10 -29z
m1327 -49 c23 -32 21 -42 -5 -28 -31 16 -38 28 -38 65 0 42 13 52 21 16 3 -16
13 -40 22 -53z m416 -59 c-57 -54 -64 -41 -8 16 24 24 45 40 47 35 2 -6 -16
-29 -39 -51z m239 25 c39 -17 112 -81 112 -100 0 -5 -20 -22 -45 -37 -66 -40
-66 -51 -3 -112 59 -56 76 -95 59 -137 l-10 -24 -1 25 c0 31 -9 44 -37 59 -36
19 -63 13 -98 -22 -32 -32 -48 -72 -60 -150 -15 -97 -195 -213 -430 -278 -104
-28 -176 -28 -242 1 -56 24 -61 31 -39 49 10 8 21 9 42 0 44 -16 211 -23 279
-10 193 36 308 168 309 356 0 97 -24 160 -84 215 -36 33 -39 40 -31 62 7 19
16 25 33 23 13 -1 15 0 6 2 -10 2 -18 8 -18 12 0 10 49 56 54 50 2 -2 6 -22 9
-43 14 -104 140 -173 202 -111 41 40 26 102 -22 93 -25 -5 -29 -44 -5 -57 11
-6 22 -7 26 -4 3 3 6 1 6 -5 0 -6 -11 -19 -25 -28 -46 -30 -124 7 -151 72 -17
42 -18 101 -1 107 27 12 130 6 165 -8z m-4953 -45 c14 -28 23 -55 20 -60 -9
-14 -38 -12 -54 3 -10 8 -12 8 -7 0 3 -6 2 -14 -4 -18 -5 -3 -10 3 -10 15 0
24 20 110 26 110 2 0 15 -23 29 -50z m712 -27 c-2 -16 -4 -3 -4 27 0 30 2 43
4 28 2 -16 2 -40 0 -55z m234 39 c-5 -10 -28 -38 -50 -62 l-40 -45 -1 29 c0
19 11 39 34 62 37 37 74 48 57 16z m91 2 c29 -15 30 -18 15 -29 -9 -7 -17 -20
-17 -29 0 -17 -106 -136 -120 -136 -4 0 -18 8 -31 19 l-23 18 43 49 c24 27 53
66 65 86 24 43 26 44 68 22z m4270 -156 c-11 -77 -37 -156 -48 -145 -4 3 1 28
11 54 10 28 20 94 23 158 6 106 6 108 15 60 7 -34 7 -75 -1 -127z m-640 97
c-5 -31 -16 -37 -46 -25 l-28 10 24 20 c28 24 54 21 50 -5z m-5014 -82 c-16
-20 -39 -16 -108 19 -55 27 -61 33 -46 43 23 18 171 -42 154 -62z m4541 51 c9
-10 -83 6 -92 15 -5 5 13 5 39 0 26 -5 50 -12 53 -15z m-119 -4 c13 -8 13 -10
-2 -10 -9 0 -20 5 -23 10 -8 13 5 13 25 0z m-3047 -40 c-6 -22 -48 -60 -66
-60 -6 0 7 18 28 40 21 22 40 40 41 40 1 0 0 -9 -3 -20z m617 12 c0 -23 -123
-112 -137 -99 -16 16 60 90 102 100 32 8 35 7 35 -1z m4275 -37 c143 -40 234
-156 235 -298 0 -70 -14 -114 -50 -157 -14 -18 -12 -8 10 34 51 99 36 212 -41
300 -135 154 -379 166 -644 34 -44 -22 -93 -49 -108 -60 -16 -11 -30 -18 -33
-15 -9 9 134 88 220 123 71 28 124 42 226 58 38 6 129 -4 185 -19z m-6036 -42
c-1 -44 -3 -52 -9 -33 -12 36 -12 90 0 90 6 0 10 -25 9 -57z m1020 -1 c14 -8
-113 -75 -187 -98 -60 -19 -215 -28 -267 -17 l-40 10 70 7 c39 4 90 12 115 18
56 13 196 78 230 106 l25 20 25 -21 c14 -12 27 -23 29 -25z m1738 28 c33 -11
82 -29 107 -40 62 -26 189 -100 183 -107 -3 -2 -23 7 -44 20 -101 64 -229 118
-324 136 -37 7 -39 9 -13 10 17 1 58 -8 91 -19z m1678 9 c-16 -5 -93 -13 -170
-19 -78 -5 -156 -12 -175 -15 l-35 -5 30 10 c17 6 97 15 180 21 82 6 152 12
154 15 2 2 14 4 25 3 16 0 13 -3 -9 -10z m-1760 -29 c8 -6 19 -9 24 -6 26 17
233 -77 333 -151 38 -28 48 -41 48 -64 l0 -29 -68 34 c-38 19 -76 46 -86 60
-18 29 -71 60 -89 52 -7 -2 -5 -5 4 -5 19 -1 69 -38 69 -51 0 -4 -36 4 -80 18
-81 27 -89 37 -35 45 28 4 28 4 -6 6 -30 1 -39 6 -49 31 -12 29 -40 60 -40 44
0 -5 7 -18 15 -28 18 -24 19 -53 3 -58 -7 -3 -34 -1 -60 4 -26 5 -87 7 -135 6
l-88 -3 104 -13 c58 -7 107 -14 109 -17 2 -2 -12 -19 -31 -39 -20 -19 -41 -51
-48 -71 -12 -32 -17 -35 -39 -30 -39 10 -88 44 -115 79 -28 37 -64 114 -65
137 0 18 58 45 125 59 55 11 182 5 200 -10z m3367 -10 c115 -43 198 -151 198
-257 0 -84 -38 -156 -100 -188 l-26 -13 0 71 c0 55 -6 84 -24 122 -28 58 -90
123 -140 147 -33 16 -34 17 -10 22 14 3 34 7 45 10 11 3 -56 4 -150 2 -157 -2
-175 -4 -239 -29 -37 -15 -98 -46 -135 -70 -84 -55 -141 -88 -141 -81 0 3 13
25 30 49 60 87 283 208 433 235 75 13 195 4 259 -20z m-3672 10 c-8 -5 -19
-10 -25 -10 -5 0 -3 5 5 10 8 5 20 10 25 10 6 0 3 -5 -5 -10z m1622 -31 c-18
-12 -35 -19 -38 -16 -3 3 7 12 23 21 42 23 53 19 15 -5z m-1682 3 c0 -13 -69
-76 -75 -70 -4 3 8 22 25 42 31 34 50 45 50 28z m-106 -45 c-14 -28 -26 -36
-87 -55 -40 -13 -141 -56 -226 -97 -102 -50 -161 -73 -174 -69 -10 3 -15 10
-11 14 34 31 466 238 501 240 9 0 8 -9 -3 -33z m131 -45 c-1 -1 -15 2 -30 8
-27 10 -27 11 -9 31 18 20 18 20 29 -8 7 -15 11 -29 10 -31z m843 -3 c13 -22
40 -59 60 -81 43 -48 36 -47 -40 7 -70 49 -95 107 -48 114 3 1 15 -17 28 -40z
m-861 -19 c69 -42 79 -125 23 -182 -21 -21 -38 -28 -67 -28 -22 0 -44 5 -51
12 -14 14 -16 124 -2 133 6 3 10 14 10 23 0 23 28 62 43 62 7 0 26 -9 44 -20z
m1852 -6 c-30 -32 -34 -104 -6 -131 17 -17 18 -17 3 12 -9 17 -16 39 -16 50 0
21 35 84 47 86 46 6 92 4 108 -4 11 -6 25 -10 30 -9 6 1 1 -5 -9 -13 -18 -14
-22 -13 -45 8 l-24 22 15 -23 c15 -22 15 -26 -4 -58 -12 -20 -18 -45 -16 -59
3 -14 2 -25 -3 -25 -4 0 -9 9 -11 20 -4 26 -22 27 -27 3 -2 -10 -8 -21 -15
-25 -6 -4 6 -8 26 -8 26 0 45 -7 62 -25 14 -14 34 -25 46 -25 11 0 20 -3 20
-6 0 -14 -41 -70 -70 -98 -21 -19 -27 -31 -20 -36 8 -5 7 -9 -5 -13 -11 -5
-14 -3 -9 5 5 8 2 9 -11 4 -26 -10 -120 91 -137 146 -10 33 -13 37 -20 22 -4
-11 -5 -2 -2 21 3 22 6 59 7 81 1 23 5 40 10 37 4 -2 8 1 8 6 1 6 2 16 3 21 0
6 6 11 11 11 6 1 19 8 30 15 35 25 51 17 24 -12z m-1961 -25 c-10 -22 -22 -39
-24 -36 -8 7 24 77 35 77 5 0 0 -18 -11 -41z m522 14 c0 -44 -78 -113 -129
-113 -25 0 -26 11 -7 49 25 47 80 89 110 84 14 -3 26 -12 26 -20z m-570 8 c0
-20 -110 -121 -160 -146 -58 -29 -155 -44 -207 -30 -26 6 -20 11 82 63 104 52
261 121 278 122 4 0 7 -4 7 -9z m723 -53 c53 -19 18 -48 -58 -48 -35 0 -51 -6
-70 -25 -71 -70 27 -166 121 -119 48 24 72 58 82 111 l7 43 60 -34 c57 -32 60
-35 57 -67 -9 -82 -71 -163 -154 -199 -42 -18 -66 -21 -133 -18 -69 2 -88 7
-123 30 -53 35 -92 102 -99 170 l-5 54 50 13 c59 15 117 65 127 110 l6 30 52
-21 c29 -11 64 -25 80 -30z m2472 33 c-3 -6 -11 -11 -17 -11 -6 0 -6 6 2 15
14 17 26 13 15 -4z m-904 -43 c74 -74 6 -218 -110 -233 -30 -3 -41 7 -21 20 6
3 19 23 30 43 10 20 19 33 20 27 0 -5 -9 -25 -21 -44 -11 -18 -18 -35 -15 -38
2 -3 16 17 30 44 13 27 32 55 40 62 20 16 20 39 2 60 -7 9 -16 35 -20 58 -5
38 -4 41 15 36 11 -3 33 -19 50 -35z m-92 1 c28 -82 -1 -134 -53 -96 -18 14
-18 15 10 115 7 23 32 12 43 -19z m-905 -180 c42 -23 74 -44 72 -46 -10 -10
-310 172 -342 208 -10 12 29 -10 88 -49 59 -38 141 -89 182 -113z m837 144
c-10 -17 -10 -16 -11 3 0 23 13 41 18 25 2 -6 -1 -18 -7 -28z m-2104 -30 c-3
-10 -5 -2 -5 17 0 19 2 27 5 18 2 -10 2 -26 0 -35z m3103 7 c-22 -31 -78 -75
-86 -68 -5 5 91 98 101 98 4 0 -3 -13 -15 -30z m-2080 -25 c24 -25 40 -45 36
-45 -15 0 -75 49 -86 70 -18 33 3 22 50 -25z m1987 17 c-18 -19 -97 -67 -97
-58 0 6 101 76 109 76 2 0 -3 -8 -12 -18z m-2985 -93 c13 -30 14 -38 3 -29
-15 13 -38 70 -27 70 4 0 15 -19 24 -41z m1313 -100 c44 -21 73 -38 65 -38
-25 -1 -212 95 -250 128 -31 28 -27 26 35 -11 39 -23 106 -58 150 -79z m583
79 c12 -21 19 -38 17 -38 -7 0 -45 63 -45 74 0 12 1 10 28 -36z m962 37 c0 -8
-63 -45 -75 -45 -5 1 8 12 30 25 43 27 45 28 45 20z m10 -46 c-29 -23 -173
-95 -210 -104 -14 -3 16 14 65 39 50 24 104 53 120 64 39 27 57 27 25 1z m150
18 c0 -2 -15 -13 -32 -26 l-33 -22 28 25 c26 24 37 31 37 23z m-1020 -124 c0
-9 -37 18 -60 43 -22 24 -20 23 18 -6 23 -18 42 -35 42 -37z m-709 -9 c121
-59 114 -66 -9 -9 -68 32 -124 65 -110 65 3 0 57 -25 119 -56z m1552 41 c-29
-20 -161 -81 -193 -90 -14 -3 25 18 85 49 111 55 148 69 108 41z m-1288 -90
c54 -18 13 -18 -50 -1 -40 11 -44 14 -20 14 17 0 48 -5 70 -13z m-3510 -5 c3
-5 34 -25 68 -44 34 -20 58 -36 53 -36 -5 0 -37 16 -72 35 -61 34 -86 55 -65
55 5 0 12 -4 16 -10z m4422 -6 c-3 -3 -12 -4 -19 -1 -8 3 -5 6 6 6 11 1 17 -2
13 -5z m-4257 -84 c8 -5 11 -10 5 -10 -5 0 -17 5 -25 10 -8 5 -10 10 -5 10 6
0 17 -5 25 -10z"/>
<path d="M1535 3333 c-56 -51 -56 -53 -9 -15 46 38 82 73 73 72 -2 -1 -31 -26
-64 -57z"/>
<path d="M1988 2273 c6 -2 18 -2 25 0 6 3 1 5 -13 5 -14 0 -19 -2 -12 -5z"/>
<path d="M1928 2248 c-13 -13 -17 -18 -8 -12 8 6 24 16 35 22 11 6 15 12 8 12
-7 0 -22 -10 -35 -22z"/>
<path d="M3342 1990 c0 -14 2 -19 5 -12 2 6 2 18 0 25 -3 6 -5 1 -5 -13z"/>
<path d="M1456 2095 c-11 -8 -15 -15 -10 -15 6 0 19 7 30 15 10 8 15 14 9 14
-5 0 -19 -6 -29 -14z"/>
<path d="M1378 2063 c7 -3 16 -2 19 1 4 3 -2 6 -13 5 -11 0 -14 -3 -6 -6z"/>
<path d="M6050 1972 c0 -6 9 -12 20 -15 11 -3 20 -3 20 -1 0 2 -9 8 -20 14
-11 6 -20 7 -20 2z"/>
<path d="M4278 1433 c6 -2 18 -2 25 0 6 3 1 5 -13 5 -14 0 -19 -2 -12 -5z"/>
<path d="M5820 1651 c0 -6 4 -13 10 -16 6 -3 7 1 4 9 -7 18 -14 21 -14 7z"/>
<path d="M3448 1104 c18 -12 22 -25 22 -65 0 -59 23 -65 28 -8 3 39 -28 89
-56 89 -13 0 -12 -3 6 -16z"/>
<path d="M1631 4600 c14 -31 19 -36 19 -24 0 6 -7 19 -16 30 -14 18 -14 18 -3
-6z"/>
<path d="M1660 4535 c0 -5 5 -17 10 -25 5 -8 10 -10 10 -5 0 6 -5 17 -10 25
-5 8 -10 11 -10 5z"/>
<path d="M1691 4455 c0 -5 6 -32 13 -60 8 -27 14 -41 14 -30 0 21 -25 107 -27
90z"/>
<path d="M431 4304 c0 -11 3 -14 6 -6 3 7 2 16 -1 19 -3 4 -6 -2 -5 -13z"/>
<path d="M815 4306 c-48 -21 -77 -60 -82 -108 -5 -52 13 -89 48 -102 63 -22
109 23 109 108 0 37 4 48 25 62 23 15 27 15 66 -4 l41 -21 -23 26 c-46 50
-123 66 -184 39z"/>
<path d="M422 4255 c0 -16 2 -22 5 -12 2 9 2 23 0 30 -3 6 -5 -1 -5 -18z"/>
<path d="M413 4145 c0 -33 2 -45 4 -27 2 18 2 45 0 60 -2 15 -4 0 -4 -33z"/>
<path d="M421 4034 c0 -11 3 -14 6 -6 3 7 2 16 -1 19 -3 4 -6 -2 -5 -13z"/>
<path d="M63 2480 c0 -30 2 -43 4 -27 2 15 2 39 0 55 -2 15 -4 2 -4 -28z"/>
<path d="M71 2394 c0 -11 3 -14 6 -6 3 7 2 16 -1 19 -3 4 -6 -2 -5 -13z"/>
<path d="M130 2275 c13 -14 26 -25 28 -25 3 0 -5 11 -18 25 -13 14 -26 25 -28
25 -3 0 5 -11 18 -25z"/>
<path d="M4969 1273 c-13 -16 -12 -17 4 -4 9 7 17 15 17 17 0 8 -8 3 -21 -13z"/>
<path d="M826 981 c-282 -282 -288 -289 -245 -279 113 27 335 6 463 -44 l48
-19 -5 23 c-36 148 -34 365 5 516 13 50 24 92 23 92 0 0 -130 -130 -289 -289z"/>
<path d="M5030 1260 c-8 -5 -12 -12 -9 -15 4 -3 12 1 19 10 14 17 11 19 -10 5z"/>
<path d="M1137 1240 c-17 -39 -39 -175 -44 -270 -6 -113 5 -195 35 -263 l18
-42 23 75 c13 41 37 102 55 136 l32 61 -28 33 c-33 40 -64 130 -76 220 -5 36
-12 58 -15 50z"/>
<path d="M6959 1139 c25 -5 56 -20 71 -34 14 -14 33 -25 41 -25 19 0 45 -28
52 -55 3 -14 5 -11 6 10 2 64 -72 115 -164 114 l-50 -1 44 -9z"/>
<path d="M6745 1094 c-16 -8 -22 -12 -12 -9 117 33 209 -7 209 -90 0 -47 -25
-75 -68 -75 -43 0 -72 37 -54 69 6 12 17 21 25 21 8 0 15 7 15 15 0 16 -27 20
-46 7 -20 -13 -35 -51 -28 -76 8 -34 35 -56 77 -63 31 -5 40 -1 67 25 59 59
33 149 -53 181 -39 15 -96 13 -132 -5z"/>
<path d="M7160 1085 c13 -14 26 -25 28 -25 3 0 -5 11 -18 25 -13 14 -26 25
-28 25 -3 0 5 -11 18 -25z"/>
<path d="M5879 913 l-24 -28 28 24 c25 23 32 31 24 31 -2 0 -14 -12 -28 -27z"/>
<path d="M2534 690 c-12 -5 -25 -14 -29 -20 -6 -9 -2 -9 13 -1 29 16 56 14 91
-6 33 -19 51 -11 35 15 -12 19 -76 26 -110 12z"/>
<path d="M7108 693 c7 -3 16 -2 19 1 4 3 -2 6 -13 5 -11 0 -14 -3 -6 -6z"/>
</g>
</svg>
