<?xml version="1.0" encoding="utf-8"?>
<!-- Svg Vector Icons : http://www.onlinewebfonts.com/icon -->
<!DOCTYPE svg PUBLIC "-//W3C//DTD SVG 1.1//EN" "http://www.w3.org/Graphics/SVG/1.1/DTD/svg11.dtd">
<svg version="1.1" xmlns="http://www.w3.org/2000/svg" xmlns:xlink="http://www.w3.org/1999/xlink" x="0px" y="0px" viewBox="0 0 1000 1000" enable-background="new 0 0 1000 1000" xml:space="preserve">
<metadata> Svg Vector Icons : http://www.onlinewebfonts.com/icon </metadata>
<g><g><g><path d="M981.9,295.8c-1.1-5.6-3.5-11.1-7.7-16.2c-57.6-70.2-122.5-138.2-174.1-213.9C771,22.9,741.9,31.4,695.5,28.5c-49.7-3.2-99.5-3.1-149.3-4.4c-100-2.7-200.1-3.6-300.1-6.1c-56.9-1.4-113.9-3.7-170.7-6.9c-0.7,0-1.2,0.1-1.9,0.1c-18-4.9-40.1,5.8-40.1,32.5c0,300.2,6.7,601.6-23.1,900.5c-2.2,21.9,11.9,32.9,27.3,33.3c2.6,0.9,5.4,1.5,8.4,1.6c301.8,13.5,603.9,11.6,905.9,9.3c18.4-0.1,28.4-14.6,30.1-30.3c0.7-2.9,1.3-5.9,1.4-9.3c6.3-212.5,10-425.1,2.1-637.6C985.3,305.3,983.9,300.2,981.9,295.8z M558.9,94.2c13.2,0.3,26.5,0.7,39.7,1.1c-1.5,64.2-1.8,128.4-1.9,192.6h-41.2C557.5,223.4,559.6,158.8,558.9,94.2z M252,87.8c81.3,2.2,162.6,3.3,243.8,5c0.9,75.2-2.2,150.3-4.3,225.4c-0.2,5.7,0.7,10.6,2.4,14.9c3.3,13.4,12.9,24.7,29.2,24.7h103c13.5,0,22.4-7.7,26.9-17.9c4.1-5.4,6.7-12.6,6.7-21.6c0-73.6,0.2-147.2,2-220.9c16.1,0.6,32.3,1.1,48.4,1.9c-1.4,106.9,0.1,213.7,3.3,320.5c-154.4-5.1-309.1,5.5-462.9-11.4C253.1,301.5,252.3,194.6,252,87.8z M706.2,920c-0.4-11.9-0.5-23.7,0-35.6c27-4,56-1.2,82.5,5.1c1.6,10,2.9,20.1,4.3,30.1C764.1,919.8,735.1,919.9,706.2,920z M921.2,918.8c-23.6,0.2-47.1,0.3-70.7,0.5c-3.4-20-5.1-40.3-9.4-60.3c-2.1-9.8-10.8-17.1-20-20c-46.3-14.3-102.6-19.4-149.5-5.7c-13.1,3.8-19.7,14.6-21,27.6c-1.9,19.8-2.3,39.5-1.6,59.2c-190.9,0.2-381.8-1.8-572.6-9.6c25-275.2,20.5-552.3,20.1-828.5c30.8,1.6,61.7,2.9,92.5,4c0.3,116.3,1.4,232.5-2.2,348.7c-0.3,10.9,3.1,19,8.5,24.7c5,7.7,12.6,13.5,23,14.9c173.8,23.8,348.9,8.1,523.4,16.3c4.2,0.2,7.9-0.5,11.2-1.7c13.5-2.5,25.1-13.5,24.5-33.2c-3.5-106.3-5.3-212.7-4.6-319.1c49.6,61.7,99.7,123,149.9,184.1C929.8,520,926.8,719.4,921.2,918.8z"/><path d="M141.7,763.7c0,29.6-0.3,59.1-2.9,88.6c-3.1,36.7,54.1,36.4,57.2,0c2.5-29.5,2.9-59,2.9-88.6C198.9,726.8,141.7,726.8,141.7,763.7z"/></g></g><g></g><g></g><g></g><g></g><g></g><g></g><g></g><g></g><g></g><g></g><g></g><g></g><g></g><g></g><g></g></g>
</svg>